<svg width="139" height="19" viewBox="0 0 139 19" fill="none" xmlns="http://www.w3.org/2000/svg">
<path d="M5.60579 4.51397V18.7345H10.7713V4.51397H16.3478V0.41304H0V4.51397H5.60579Z" fill="#2188FF"/>
<path d="M30.7585 12.9814C31.832 12.472 32.7458 11.6759 33.3999 10.6801C34.0348 9.63256 34.3605 8.42522 34.3391 7.19875C34.3549 5.92783 34.0086 4.67891 33.3412 3.59937C32.6451 2.55866 31.6675 1.73972 30.5237 1.23912C29.1701 0.660422 27.7092 0.378787 26.2386 0.413036H17.9033V4.48446H25.9158C26.943 4.48446 27.7648 4.72049 28.3224 5.19254C28.5936 5.44259 28.8075 5.74884 28.9494 6.09013C29.0913 6.43141 29.1578 6.7996 29.1442 7.16925C29.1608 7.53927 29.0957 7.90838 28.9536 8.25013C28.8115 8.59189 28.596 8.8978 28.3224 9.14595C27.7648 9.618 26.9724 9.82453 25.9158 9.82453H17.9033V18.705H23.0689V13.8369H25.8864L29.2029 18.705H34.7207L30.7585 12.9814Z" fill="#2188FF"/>
<path d="M49.19 0.41304H44.1125L36.0414 18.7345H41.3243L42.7625 15.1646L44.2593 11.3292L46.6073 5.45807L48.9552 11.3292L50.4521 15.1646L51.8902 18.7345H57.2612L49.19 0.41304Z" fill="#2188FF"/>
<path d="M61.3114 17.7904C62.9029 18.6285 64.6808 19.0448 66.477 19C68.0281 19.0203 69.5667 18.719 70.9968 18.1149C72.2992 17.5389 73.4462 16.659 74.3427 15.5481L71.0555 12.5683C69.8522 14.014 68.414 14.722 66.7704 14.722C65.8392 14.7421 64.9189 14.5185 64.0996 14.073C63.3255 13.6688 62.6987 13.0284 62.3093 12.2438C61.8858 11.3929 61.6743 10.4513 61.693 9.5C61.6708 8.55781 61.8827 7.62493 62.3093 6.78571C62.7146 6.00503 63.3365 5.35935 64.0996 4.92701C64.924 4.49506 65.8409 4.27224 66.7704 4.27795C68.4434 4.27795 69.8815 5.01552 71.0555 6.43167L74.3427 3.45186C73.4502 2.33695 72.3021 1.4562 70.9968 0.885089C69.5675 0.27821 68.0283 -0.0232045 66.477 -3.81866e-06C64.6787 -0.031366 62.9018 0.39489 61.3114 1.23913C59.848 2.02921 58.614 3.18825 57.7308 4.60248C56.8534 6.09236 56.4062 7.79846 56.4394 9.5295C56.4025 11.261 56.8499 12.9681 57.7308 14.4565C58.607 15.869 59.8433 17.0201 61.3114 17.7904Z" fill="#2188FF"/>
<path d="M80.741 4.51397V18.7345H85.9065V4.51397H91.483V0.41304H75.1646V4.51397H80.741Z" fill="#2188FF"/>
<path d="M93.0385 0.41304V18.7345H98.204V0.41304H93.0385Z" fill="#2188FF"/>
<path d="M112.468 0.41304H107.39L99.3486 18.7345H104.602L106.04 15.1646L107.537 11.3292L109.885 5.45807L112.233 11.3292L113.73 15.1646L115.168 18.7345H120.539L112.468 0.41304Z" fill="#2188FF"/>
<path d="M121.684 18.7345H126.732L126.761 13.2469L121.713 6.78571L121.684 18.7345ZM133.952 0.41304L133.922 5.66459L138.971 11.8012L139 0.41304H133.952ZM133.952 10.1786L125.91 0.41304H121.654V2.8618L126.702 8.99844L134.744 18.764H139V16.6397L133.952 10.1786Z" fill="#2188FF"/>
</svg>
